<svg xmlns="http://www.w3.org/2000/svg" width="41" height="35"><defs><filter id="a"><feOffset in="SourceAlpha" dy="1"/><feGaussianBlur result="blurOut"/><feFlood flood-color="#FFF" result="floodOut"/><feComposite operator="out" in="floodOut" in2="blurOut" result="compOut"/><feComposite operator="in" in="compOut" in2="SourceAlpha"/><feComponentTransfer><feFuncA type="linear" slope=".72"/></feComponentTransfer><feBlend in2="SourceGraphic"/></filter><linearGradient id="b" x1="0%" x2="0%" y1="100%" y2="0%"><stop offset="0%" stop-color="#FF911A"/><stop offset="44%" stop-color="#FFBB0D"/><stop offset="100%" stop-color="#FFE400"/></linearGradient></defs><path fill-rule="evenodd" fill="#E81F6C" d="M34.946 12.492l-14.67 15.709c-1.381 1.492-3.62 1.492-5.001 0l-8.265-8.76c-1.381-1.491-1.381-3.909 0-5.401 1.381-1.491 3.62-1.491 5.001 0l5.752 6.097L29.945 7.092c1.381-1.492 3.62-1.492 5.001 0 1.381 1.491 1.381 3.909 0 5.4z" filter="url(#a)"/><path stroke-width="2" stroke="#000" fill="url(#b)" d="M34.946 12.492l-14.67 15.709c-1.381 1.492-3.62 1.492-5.001 0l-8.265-8.76c-1.381-1.491-1.381-3.909 0-5.401 1.381-1.491 3.62-1.491 5.001 0l5.752 6.097L29.945 7.092c1.381-1.492 3.62-1.492 5.001 0 1.381 1.491 1.381 3.909 0 5.4z"/></svg>
