<?xml version="1.0" standalone="no"?>
<!DOCTYPE svg PUBLIC "-//W3C//DTD SVG 20010904//EN"
 "http://www.w3.org/TR/2001/REC-SVG-20010904/DTD/svg10.dtd">
<svg version="1.0" xmlns="http://www.w3.org/2000/svg"
 width="385.000000pt" height="385.000000pt" viewBox="0 0 385.000000 385.000000"
 preserveAspectRatio="xMidYMid meet">
<metadata>
Created by potrace 1.11, written by Peter Selinger 2001-2013
</metadata>
<g transform="translate(0.000000,385.000000) scale(0.100000,-0.100000)"
fill="#000000" stroke="none">
<path d="M1647 3814 c-435 -65 -811 -261 -1118 -582 -251 -262 -408 -564 -485
-927 -32 -152 -44 -439 -24 -603 74 -632 464 -1187 1035 -1474 185 -94 351
-147 570 -185 149 -25 471 -23 625 5 707 128 1280 622 1493 1287 181 563 101
1155 -223 1642 -292 441 -733 727 -1275 830 -116 22 -472 26 -598 7z m486
-592 c56 -25 114 -83 139 -139 28 -64 32 -135 14 -232 -9 -46 -16 -85 -16 -87
0 -2 42 -4 94 -4 429 0 625 -113 682 -391 38 -188 -20 -511 -129 -724 -58
-112 -183 -238 -287 -289 -132 -64 -208 -78 -437 -84 l-202 -4 -5 -27 c-10
-46 -116 -626 -116 -633 0 -21 -142 2 -200 32 -86 44 -150 153 -150 254 0 43
33 253 55 352 5 21 2 22 -173 27 -260 7 -381 45 -487 151 -88 88 -125 197
-125 366 0 265 90 551 222 708 158 186 360 261 704 262 l140 0 43 233 c24 127
45 239 47 248 3 13 15 14 74 8 38 -4 89 -16 113 -27z"/>
<path d="M1476 2383 c-104 -31 -170 -104 -215 -236 -46 -133 -65 -323 -40
-398 31 -91 99 -119 294 -119 l131 0 69 373 c37 204 70 378 73 385 7 19 -248
15 -312 -5z"/>
<path d="M2191 2349 c-17 -86 -131 -706 -131 -713 0 -13 276 -6 326 9 134 40
214 189 246 457 19 163 -15 250 -110 278 -20 6 -101 14 -179 17 l-141 6 -11
-54z"/>
</g>
</svg>
